# AST/ASF file generated using VICON BodyLanguage
# -----------------------------------------------
:version 1.10
:name VICON
:units
  mass 1.0
  length 0.45
  angle deg
:documentation
   .ast/.asf automatically generated from VICON data using
   VICON BodyBuilder and BodyLanguage model FoxedUp or BRILLIANT.MOD
:root
   order TX TY TZ RX RY RZ
   axis XYZ
   position 0 0 0  
   orientation 0 0 0 
:bonedata
  begin
     id 1 
     name lhipjoint
     direction 0.78388 -0.462562 0.414208 
     length 3.01181 
     axis 0 0 0  XYZ
  end
  begin
     id 2 
     name lfemur
     direction 0.34202 -0.939693 0  
     length 6.04673  
     axis 0 0 20  XYZ
    dof rx ry rz
    limits (-160.0 20.0)
           (-70.0 70.0)
           (-60.0 70.0)
  end
  begin
     id 3 
     name ltibia
     direction 0.34202 -0.939693 0   
     length 7.211   
     axis 0 0 20   XYZ
    dof rx
    limits (-10.0 170.0)
  end
  begin
     id 4 
     name lfoot
     direction 0.121887 -0.334882 0.934344   
     length 2.13567   
     axis -90 7.62852e-016 20   XYZ
    dof rx rz
    limits (-45.0 90.0)
           (-70.0 20.0)
  end
  begin
     id 5 
     name ltoes
     direction 1.53555e-011 -4.2179e-011 1   
     length 1.05957   
     axis -90 7.62852e-016 20   XYZ
    dof rx
    limits (-90.0 20.0)
  end
  begin
     id 6 
     name rhipjoint
     direction -0.769387 -0.475875 0.426129   
     length 2.92756  
     axis 0 0 0  XYZ 
  end
  begin
     id 7 
     name rfemur
     direction -0.34202 -0.939693 0   
     length 6.35468   
     axis 0 0 -20   XYZ
    dof rx ry rz
    limits (-160.0 20.0)
           (-70.0 70.0)
           (-70.0 60.0)
  end
  begin
     id 8 
     name rtibia
     direction -0.34202 -0.939693 0   
     length 7.37886   
     axis 0 0 -20   XYZ
    dof rx
    limits (-10.0 170.0)
 end
 begin
     id 9 
     name rfoot
     direction -0.101763 -0.279592 0.954711   
     length 2.21478  
     axis -90 -7.62852e-016 -20   XYZ
    dof rx rz
    limits (-45.0 90.0)
           (-20.0 70.0)
  end
  begin
     id 10 
     name rtoes
     direction -1.53494e-011 -4.21851e-011 1   
     length 1.10506   
     axis -90 -7.62852e-016 -20   XYZ
    dof rx
    limits (-90.0 20.0)
  end
  begin
     id 11 
     name lowerback
     direction 0.00747405 0.999267 0.0375481   
     length 2.13259   
     axis 0 0 0   XYZ
    dof rx ry rz
    limits (-20.0 45.0)
           (-30.0 30.0)
           (-30.0 30.0)
  end
  begin
     id 12 
     name upperback
     direction 0.00661626 0.996177 0.0871029   
     length 2.10528   
     axis 0 0 0   XYZ
    dof rx ry rz
    limits (-20.0 45.0)
           (-30.0 30.0)
           (-30.0 30.0)
  end
  begin
     id 13 
     name thorax
     direction 0.00320659 0.997679 0.0680167   
     length 2.11338   
     axis 0 0 0   XYZ
    dof rx ry rz
    limits (-20.0 45.0)
           (-30.0 30.0)
           (-30.0 30.0)
  end
  begin
     id 14 
     name lowerneck
     direction 0.0374841 0.973033 0.227602   
     length 1.42765   
     axis 0 0 0   XYZ
    dof rx ry rz
    limits (-20.0 45.0)
           (-30.0 30.0)
           (-30.0 30.0)
  end
  begin
     id 15 
     name upperneck
     direction 0.00481585 0.989155 -0.146795   
     length 1.47593   
     axis 0 0 0   XYZ
    dof rx ry rz
    limits (-20.0 45.0)
           (-30.0 30.0)
           (-30.0 30.0)
  end
  begin
     id 16
     name head
     direction -0.00292522 0.997206 -0.0746423  
     length 1.48116  
     axis 0 0 0   XYZ
    dof rx ry rz
    limits (-20.0 45.0)
           (-30.0 30.0)
           (-30.0 30.0)
  end
  begin
     id 17 
     name lclavicle
     direction 0.951444 0.305606 0.0368784  
     length 3.01855  
     axis 0 0 0   XYZ
    dof ry rz
    limits (-20.0 10.0)
           (0.0 20.0)
  end
  begin
     id 18 
     name lhumerus
     direction 1 -4.48977e-011 2.61664e-027   
     length 5.52731   
     axis 180 -30 -90   XYZ
    dof rx ry rz
    limits (-60.0 90.0)
           (-90.0 90.0)
           (-90.0 90.0)
  end
  begin
     id 19
     name lradius
     direction 1 -4.48944e-011 8.22157e-027   
     length 3.11059   
     axis 180 -30 -90   XYZ
    dof rx
    limits (-10.0 170.0)
  end
  begin
     id 20
     name lwrist
     direction 1 -4.48976e-011 1.5779e-026   
     length 1.5553   
     axis -1.15221e-014 90 90   XYZ
    dof ry
    limits (-180.0 0.0)
 end
  begin
     id 21 
     name lhand
     direction 1 -4.49025e-011 3.1558e-026   
     length 0.419626   
     axis -2.01367e-014 90 90   XYZ
    dof rx rz
    limits (-90.0 90.0)
           (-45.0 45.0)
  end
  begin
     id 22 
     name lfingers
     direction 1 -4.4904e-011 6.31161e-026   
     length 0.338313   
     axis -4.02734e-014 90 90   XYZ
    dof rx
    limits (0.0 90.0)
  end
  begin
     id 23
     name lthumb
     direction 0.707107 -6.35004e-011 0.707107   
     length 0.485752   
     axis -90 45 2.85299e-015   XYZ
    dof rx rz
    limits (-45.0 45.0)
           (-45.0 45.0)
  end
  begin
     id 24 
     name rclavicle
     direction -0.968876 0.223791 0.105816   
     length 3.04177  
     axis 0 0 0   XYZ 
    dof ry rz
    limits (-10.0 20.0)
           (-20.0 0.0)
  end
  begin
     id 25 
     name rhumerus
     direction -1 -4.48962e-011 -1.01384e-027  
     length 5.25396   
     axis 180 30 90   XYZ
    dof rx ry rz
    limits (-90.0 60.0)
           (-90.0 90.0)
           (-90.0 90.0)
  end
  begin
     id 26 
     name rradius
     direction -1 -4.48955e-011 8.88542e-027   
     length 3.10567   
     axis 180 30 90   XYZ
    dof rx
    limits (-10.0 170.0)
  end
  begin
     id 27 
     name rwrist
     direction -1 -4.48994e-011 1.5779e-026   
     length 1.55283   
     axis -1.15221e-014 -90 -90   XYZ
    dof ry
    limits (-180.0 0.0)
  end
  begin
     id 28
     name rhand
     direction -1 -4.48891e-011 3.1558e-026   
     length 0.498676   
     axis -2.01367e-014 -90 -90   XYZ
    dof rx rz
    limits (-90.0 90.0)
           (-45.0 45.0)
  end
  begin
     id 29
     name rfingers
     direction -1 -4.48972e-011 6.31161e-026   
     length 0.402045   
     axis -4.02734e-014 -90 -90   XYZ
    dof rx
    limits (0.0 90.0)
  end
  begin
     id 30
     name rthumb
     direction -0.707107 -6.34849e-011 0.707107   
     length 0.577259   
     axis -90 -45 -2.85299e-015   XYZ
    dof rx rz
    limits (-45.0 45.0)
           (-45.0 45.0)
  end
:hierarchy
  begin
    root lhipjoint rhipjoint lowerback
    lhipjoint lfemur
    lfemur ltibia
    ltibia lfoot
    lfoot ltoes
    rhipjoint rfemur
    rfemur rtibia
    rtibia rfoot
    rfoot rtoes
    lowerback upperback
    upperback thorax
    thorax lowerneck lclavicle rclavicle
    lowerneck upperneck
    upperneck head
    lclavicle lhumerus
    lhumerus lradius
    lradius lwrist
    lwrist lhand lthumb
    lhand lfingers
    rclavicle rhumerus
    rhumerus rradius
    rradius rwrist
    rwrist rhand rthumb
    rhand rfingers
  end

#!OML:ASF H:\Pregnant\Project 1\Capture day 1\Session 1\femalepreg.ASF
:FULLY-SPECIFIED
:DEGREES
1
root -2.98238 15.1573 33.3612 15.0978 52.3507 1.08022
lowerback -14.4777 2.85304 4.27112
upperback -5.52371 3.40046 -1.7769
thorax 2.60748 1.7116 -3.7064
lowerneck -13.5603 8.83763 10.4374
upperneck 30.2647 13.1609 -7.35533
head 13.731 6.27626 -2.44954
rclavicle 3.51958e-014 2.14936e-014
rhumerus -35.2776 -5.93689 -78.8827
rradius 26.389
rwrist -1.22583
rhand -16.1503 -13.4461
rfingers 7.12502
rthumb 10.0551 -43.1859
lclavicle 3.51958e-014 2.14936e-014
lhumerus -42.3317 7.27342 72.7866
lradius 26.375
lwrist 39.7131
lhand -19.4704 -4.77008
lfingers 7.12502
lthumb 6.85106 25.0991
rfemur -41.1035 22.7028 10.9902
rtibia 40.2909
rfoot -13.8323 -7.09495
rtoes -18.9452
lfemur -17.6503 -23.7493 -19.4247
ltibia 45.2162
lfoot 3.10689 -22.1559
ltoes 2.1834
2
root -2.95335 15.1619 33.4248 14.5008 52.6507 0.550505
lowerback -14.2325 2.86932 4.97227
upperback -5.53859 3.33281 -1.62493
thorax 2.47836 1.66977 -3.96485
lowerneck -13.458 8.95114 10.5842
upperneck 30.3299 13.3751 -7.51791
head 13.7901 6.37169 -2.50089
rclavicle -8.99889e-015 7.60351e-015
rhumerus -35.0293 -5.36229 -79.1987
rradius 26.7343
rwrist -1.78526
rhand -16.3586 -13.3845
rfingers 7.12502
rthumb 9.85417 -43.1339
lclavicle -8.99889e-015 7.60351e-015
lhumerus -42.4191 7.69835 72.6446
lradius 26.3138
lwrist 39.6271
lhand -19.115 -4.6849
lfingers 7.12502
lthumb 7.19412 25.1728
rfemur -40.3372 22.7673 11.6917
rtibia 39.9641
rfoot -14.0125 -7.22457
rtoes -18.2444
lfemur -18.5705 -23.0175 -19.1074
ltibia 47.1625
lfoot 5.11116 -21.7199
ltoes 2.90622
3
root -2.92751 15.1666 33.4878 14.0799 52.9604 0.14653
lowerback -14.069 2.83729 5.5508
upperback -5.51808 3.21656 -1.48883
thorax 2.41812 1.60621 -4.17458
lowerneck -13.4795 9.11749 10.7446
upperneck 30.3875 13.6422 -7.66686
head 13.8802 6.48671 -2.53326
rclavicle 2.14439e-014 5.31749e-015
rhumerus -34.6287 -4.67591 -79.5806
rradius 27.0217
rwrist -2.30858
rhand -16.0922 -13.2824
rfingers 7.12502
rthumb 10.1112 -43.0195
lclavicle 2.14439e-014 5.31749e-015
lhumerus -42.4413 7.75329 72.7446
lradius 26.4161
lwrist 39.9319
lhand -18.9031 -4.48857
lfingers 7.12502
lthumb 7.39865 25.3621
rfemur -39.667 22.7012 12.3306
rtibia 39.6378
rfoot -14.114 -7.39654
rtoes -18.148
lfemur -19.6081 -22.2834 -18.8104
ltibia 49.0124
lfoot 7.2744 -21.2601
ltoes 4.42827
4
root -2.90286 15.1725 33.5501 13.5704 53.2978 -0.317363
lowerback -13.8883 2.81347 6.0757
upperback -5.45588 3.11737 -1.2949
thorax 2.38735 1.55311 -4.28911
lowerneck -13.4922 9.22557 10.7859
upperneck 30.3691 13.8467 -7.82367
head 13.9185 6.56106 -2.56171
rclavicle 2.86436e-014 1.92821e-014
rhumerus -34.2422 -3.96961 -79.8294
rradius 27.3734
rwrist -2.86102
rhand -16.1089 -13.2991
rfingers 7.12502
rthumb 10.0951 -43.0369
lclavicle 2.86436e-014 1.92821e-014
lhumerus -42.3522 7.72002 73.0339
lradius 26.4627
lwrist 40.1008
lhand -18.7089 -4.37524
lfingers 7.12502
lthumb 7.58615 25.4687
rfemur -38.9427 22.6599 13.0046
rtibia 39.2977
rfoot -14.23 -7.59481
rtoes -17.9418
lfemur -20.6535 -21.4641 -18.4679
ltibia 50.7928
lfoot 8.67186 -21.111
ltoes 3.95828
5
root -2.87791 15.1762 33.6102 13.0956 53.6129 -0.770897
lowerback -13.6903 2.79579 6.64433
upperback -5.43599 3.02794 -1.1414
thorax 2.30594 1.50226 -4.47058
lowerneck -13.475 9.34307 10.894
upperneck 30.3777 14.052 -7.97027
head 13.9682 6.64565 -2.59777
rclavicle -3.86636e-014 -2.13694e-014
rhumerus -33.9102 -3.30556 -80.1155
rradius 27.7169
rwrist -3.34323
rhand -16.1158 -13.2913
rfingers 7.12502
rthumb 10.0884 -43.0295
lclavicle -3.86636e-014 -2.13694e-014
lhumerus -42.3138 7.72035 73.2229
lradius 26.5075
lwrist 40.2277
lhand -18.4876 -4.24887
lfingers 7.12502
lthumb 7.79969 25.5873
rfemur -38.2762 22.5686 13.6508
rtibia 38.966
rfoot -14.3448 -7.70979
rtoes -17.6722
lfemur -21.6872 -20.7078 -18.1541
ltibia 52.529
lfoot 10.0124 -20.7592
ltoes 3.4446
6
root -2.85375 15.1801 33.6684 12.6431 53.9277 -1.21087
lowerback -13.4769 2.77428 7.19295
upperback -5.42519 2.94093 -0.996481
thorax 2.20484 1.45164 -4.64959
lowerneck -13.4524 9.45256 11.0068
upperneck 30.3728 14.2406 -8.11211
head 14.0095 6.72427 -2.63595
rclavicle 3.25261e-014 2.38542e-015
rhumerus -33.5975 -2.63761 -80.3914
rradius 28.0628
rwrist -3.79041
rhand -16.143 -13.2947
rfingers 7.12502
rthumb 10.0622 -43.0341
lclavicle 3.25261e-014 2.38542e-015
lhumerus -42.269 7.60727 73.4735
lradius 26.5759
lwrist 40.3608
lhand -18.2871 -4.12969
lfingers 7.12502
lthumb 7.99327 25.6992
rfemur -37.6296 22.4344 14.2768
rtibia 38.6184
rfoot -14.4448 -7.78458
rtoes -17.4215
lfemur -22.7404 -19.9493 -17.8558
ltibia 54.2056
lfoot 10.9152 -20.4418
ltoes 2.22163
7
root -2.8302 15.1843 33.725 12.2138 54.243 -1.62924
lowerback -13.2486 2.74865 7.7121
upperback -5.42206 2.85717 -0.85871
thorax 2.08558 1.40168 -4.81901
lowerneck -13.4171 9.5512 11.1274
upperneck 30.3534 14.4102 -8.2544
head 14.0407 6.79599 -2.67967
rclavicle -8.1129e-014 -2.82274e-014
rhumerus -33.3077 -1.97138 -80.6482
rradius 28.4094
rwrist -4.20815
rhand -16.2051 -13.3032
rfingers 7.12502
rthumb 10.0023 -43.0456
lclavicle -8.1129e-014 -2.82274e-014
lhumerus -42.2154 7.42344 73.7646
lradius 26.6512
lwrist 40.4479
lhand -18.0741 -4.03307
lfingers 7.12502
lthumb 8.19887 25.7879
rfemur -37.0062 22.2632 14.8771
rtibia 38.2785
rfoot -14.544 -7.82366
rtoes -17.1727
lfemur -23.8042 -19.1908 -17.5882
ltibia 55.8317
lfoot 11.2916 -20.1276
ltoes 0.227673
8
root -2.80721 15.189 33.7803 11.8158 54.5601 -2.01397
lowerback -13.0171 2.71307 8.18782
upperback -5.41698 2.76895 -0.726517
thorax 1.96321 1.34932 -4.9699
lowerneck -13.3763 9.64588 11.2637
upperneck 30.3156 14.5691 -8.4031
head 14.064 6.86417 -2.73061
rclavicle -5.62188e-014 -2.46493e-014
rhumerus -33.021 -1.30104 -80.8902
rradius 28.7458
rwrist -4.59477
rhand -16.3095 -13.3099
rfingers 7.12502
rthumb 9.90156 -43.0571
lclavicle -5.62188e-014 -2.46493e-014
lhumerus -42.1512 7.16209 74.1006
lradius 26.7454
lwrist 40.5033
lhand -17.8528 -3.96194
lfingers 7.12502
lthumb 8.41241 25.8505
rfemur -36.4003 22.0584 15.4457
rtibia 37.9417
rfoot -14.6378 -7.83007
rtoes -16.9257
lfemur -24.8687 -18.4317 -17.3656
ltibia 57.39
lfoot 11.1551 -19.7669
ltoes -2.24785
9
root -2.78455 15.194 33.8345 11.4586 54.8769 -2.35747
lowerback -12.7844 2.67187 8.61654
upperback -5.41515 2.68235 -0.601006
thorax 1.8343 1.29745 -5.10046
lowerneck -13.327 9.73133 11.4053
upperneck 30.2646 14.712 -8.55386
head 14.0788 6.92623 -2.78656
rclavicle -3.18055e-014 7.55382e-015
rhumerus -32.7495 -0.631036 -81.1085
rradius 29.0739
rwrist -4.96539
rhand -16.435 -13.3185
rfingers 7.12502
rthumb 9.78052 -43.0714
lclavicle -3.18055e-014 7.55382e-015
lhumerus -42.0784 6.84636 74.4679
lradius 26.8463
lwrist 40.4914
lhand -17.6107 -3.92408
lfingers 7.12502
lthumb 8.64601 25.8789
rfemur -35.8201 21.8246 15.9783
rtibia 37.6195
rfoot -14.7306 -7.82008
rtoes -16.729
lfemur -25.9346 -17.6675 -17.1966
ltibia 58.8735
lfoot 10.5848 -19.2948
ltoes -4.83919
10
root -2.76193 15.1991 33.8883 11.1406 55.1948 -2.65201
lowerback -12.5862 2.6131 8.96767
upperback -5.38352 2.57798 -0.458447
thorax 1.74874 1.23983 -5.16945
lowerneck -13.2965 9.81942 11.5301
upperneck 30.1886 14.862 -8.72044
head 14.0883 6.98654 -2.84365
rclavicle -6.59468e-014 -1.59028e-015
rhumerus -32.4354 0.0670295 -81.2856
rradius 29.3805
rwrist -5.32279
rhand -16.6299 -13.3286
rfingers 7.12502
rthumb 9.59242 -43.0902
lclavicle -6.59468e-014 -1.59028e-015
lhumerus -41.9662 6.5187 74.8885
lradius 26.9542
lwrist 40.4171
lhand -17.3375 -3.92539
lfingers 7.12502
lthumb 8.90964 25.8665
rfemur -35.2588 21.5799 16.473
rtibia 37.3253
rfoot -14.83 -7.81191
rtoes -16.5483
lfemur -26.9859 -16.894 -17.0913
ltibia 60.2698
lfoot 9.69995 -18.6827
ltoes -7.1966
11
root -2.73905 15.2039 33.9411 10.8888 55.5042 -2.88953
lowerback -12.4192 2.55251 9.26563
upperback -5.34349 2.4753 -0.3211
thorax 1.68712 1.18477 -5.21191
lowerneck -13.2742 9.90166 11.6397
upperneck 30.0973 15.001 -8.88148
head 14.0898 7.04067 -2.89771
rclavicle -7.15128e-014 -5.1684e-015
rhumerus -32.1115 0.745751 -81.4291
rradius 29.6695
rwrist -5.6501
rhand -16.8571 -13.3576
rfingers 7.12502
rthumb 9.37325 -43.1292
lclavicle -7.15128e-014 -5.1684e-015
lhumerus -41.8244 6.16533 75.3326
lradius 27.0601
lwrist 40.2524
lhand -16.9897 -3.96709
lfingers 7.12502
lthumb 9.24528 25.8102
rfemur -34.7513 21.3165 16.9172
rtibia 37.0727
rfoot -14.9395 -7.79865
rtoes -16.4243
lfemur -28.0507 -16.1061 -17.0545
ltibia 61.5702
lfoot 8.64876 -17.9117
ltoes -9.08677
